<?xml version="1.0" standalone="no"?>
<!DOCTYPE svg PUBLIC "-//W3C//DTD SVG 20010904//EN"
 "http://www.w3.org/TR/2001/REC-SVG-20010904/DTD/svg10.dtd">
<svg version="1.0" xmlns="http://www.w3.org/2000/svg"
 width="621.000000pt" height="174.000000pt" viewBox="0 0 621.000000 174.000000"
 preserveAspectRatio="xMidYMid meet">

<g transform="translate(0.000000,174.000000) scale(0.100000,-0.100000)"
fill="#000000" stroke="none">
<path d="M3280 1658 c-3 -3 -54 -8 -115 -11 -99 -6 -252 -20 -345 -31 -19 -3
-84 -10 -145 -16 -60 -6 -128 -15 -150 -19 -345 -73 -629 -148 -965 -256 -25
-8 -74 -23 -110 -34 -152 -45 -216 -65 -225 -72 -5 -4 -53 -23 -105 -43 -52
-20 -123 -50 -157 -66 -35 -17 -65 -30 -69 -30 -6 0 -96 -39 -229 -100 -33
-15 -71 -31 -85 -35 -14 -4 -54 -22 -90 -40 -36 -18 -95 -47 -132 -64 -149
-70 -176 -142 -84 -224 54 -48 165 -77 299 -77 139 0 317 -12 311 -21 -2 -4
-29 -17 -59 -28 -30 -11 -63 -29 -73 -39 -18 -18 -18 -20 -2 -39 9 -12 36 -31
61 -44 61 -32 136 -29 267 11 198 59 528 134 967 220 28 5 97 14 153 20 57 5
107 12 111 14 20 13 187 28 376 36 272 10 504 29 528 41 29 16 19 77 -16 103
-24 18 -46 22 -135 24 -58 2 -122 -1 -142 -7 -67 -19 -206 -32 -439 -38 -174
-5 -232 -3 -227 5 4 6 26 16 49 22 23 6 56 17 72 25 17 7 59 24 95 38 98 37
171 75 208 110 30 29 35 30 70 21 29 -8 69 -6 158 7 65 9 146 20 179 24 33 3
78 10 100 15 22 5 126 20 230 35 411 55 632 118 732 208 34 31 46 36 115 42
86 8 143 -6 213 -54 84 -57 96 -108 51 -206 -42 -92 -120 -159 -277 -237 -160
-80 -298 -122 -538 -164 -95 -17 -279 -23 -298 -11 -7 5 -13 19 -13 31 0 43
160 173 254 207 47 17 57 29 58 70 1 39 -39 79 -79 79 -33 0 -238 -136 -287
-190 -45 -50 -56 -77 -56 -141 0 -66 18 -106 68 -151 30 -27 53 -39 89 -44 61
-9 335 12 399 31 27 7 72 17 99 20 28 4 70 14 95 22 343 117 490 218 584 402
39 74 28 235 -19 307 -9 14 -11 25 -5 29 5 3 17 -9 26 -27 26 -53 120 -126
255 -197 143 -75 185 -101 220 -133 14 -13 37 -31 52 -41 46 -30 35 -52 -45
-97 -75 -41 -148 -66 -275 -94 -147 -32 -193 -84 -120 -133 41 -28 72 -29 185
-3 190 42 314 93 365 149 59 66 61 127 7 221 -38 66 -115 124 -305 231 -153
85 -201 114 -210 128 -7 13 20 19 110 24 236 15 391 42 427 74 47 42 23 120
-50 161 -31 17 -57 22 -118 23 -174 3 -406 -49 -489 -110 l-49 -36 -121 0
c-160 0 -304 26 -423 76 -51 22 -114 44 -140 50 -26 5 -81 16 -122 25 -71 14
-489 32 -500 22z m130 -108 c222 -12 421 -36 432 -53 4 -7 8 -22 8 -35 0 -31
17 -63 48 -88 l26 -21 -44 -23 c-100 -51 -200 -75 -490 -115 -111 -16 -319
-53 -545 -97 -116 -22 -131 -23 -182 -13 -25 6 -40 1 -75 -23 -56 -38 -128
-73 -203 -99 -104 -36 -276 -91 -385 -122 -107 -31 -299 -94 -335 -110 -37
-17 -149 -40 -225 -47 -41 -3 -85 -10 -96 -15 -12 -4 -59 -11 -105 -14 -46 -3
-86 -8 -89 -10 -23 -14 -663 -24 -742 -11 -53 8 -62 25 -25 51 114 83 339 202
423 224 23 6 47 18 54 26 7 8 16 13 20 10 10 -6 44 8 85 35 17 11 37 23 45 26
8 4 38 17 65 29 28 12 61 26 75 30 14 4 39 13 55 20 55 23 119 47 192 70 39
13 84 30 100 39 31 17 220 76 423 131 74 20 164 45 200 55 79 22 96 26 235 56
240 52 355 73 465 83 63 6 131 13 150 14 77 8 255 6 440 -3z"/>
<path d="M5650 881 c-26 -7 -37 -33 -39 -94 -1 -32 6 -44 46 -82 26 -25 52
-45 60 -45 20 0 45 70 40 112 -5 40 -38 93 -65 106 -9 5 -28 6 -42 3z"/>
</g>
</svg>
