<?xml version="1.0" encoding="UTF-8" standalone="no"?>
<!-- Created with Inkscape (http://www.inkscape.org/) -->

<svg
   xmlns:dc="http://purl.org/dc/elements/1.1/"
   xmlns:cc="http://creativecommons.org/ns#"
   xmlns:rdf="http://www.w3.org/1999/02/22-rdf-syntax-ns#"
   xmlns:svg="http://www.w3.org/2000/svg"
   xmlns="http://www.w3.org/2000/svg"
   xmlns:sodipodi="http://sodipodi.sourceforge.net/DTD/sodipodi-0.dtd"
   xmlns:inkscape="http://www.inkscape.org/namespaces/inkscape"
   width="75.224174"
   height="65.829216"
   id="svg2"
   version="1.1"
   inkscape:version="0.48.2 r9819"
   sodipodi:docname="Aleksandrs Bartaševičs sign.svg">
  <defs
     id="defs4" />
  <sodipodi:namedview
     id="base"
     pagecolor="#ffffff"
     bordercolor="#666666"
     borderopacity="1.0"
     inkscape:pageopacity="0.0"
     inkscape:pageshadow="2"
     inkscape:zoom="3.959798"
     inkscape:cx="-23.197236"
     inkscape:cy="-4.5845936"
     inkscape:document-units="px"
     inkscape:current-layer="layer2"
     showgrid="false"
     inkscape:window-width="1406"
     inkscape:window-height="953"
     inkscape:window-x="416"
     inkscape:window-y="30"
     inkscape:window-maximized="0"
     fit-margin-top="0"
     fit-margin-left="0"
     fit-margin-right="0"
     fit-margin-bottom="0" />
  <metadata
     id="metadata7">
    <rdf:RDF>
      <cc:Work
         rdf:about="">
        <dc:format>image/svg+xml</dc:format>
        <dc:type
           rdf:resource="http://purl.org/dc/dcmitype/StillImage" />
        <dc:title />
      </cc:Work>
    </rdf:RDF>
  </metadata>
  <g
     inkscape:groupmode="layer"
     id="layer2"
     inkscape:label="Graph"
     style="display:inline"
     transform="translate(-409.99976,-875.14032)">
    <path
       style="fill:none;stroke:#000000;stroke-width:1;stroke-linecap:round;stroke-linejoin:round;stroke-miterlimit:4;stroke-opacity:1;stroke-dasharray:none;marker-mid:none;marker-end:none"
       d="m 484.62068,884.04551 c -32.40986,-3.14362 -59.09183,8.06103 -72.60471,33.71385 -0.625,1.33929 0.37881,3.40926 0.37881,3.40926 l 7.82868,8.5863 c 0,0 4.86956,6.25852 6.56599,7.95495 1.33929,1.78571 2.2637,2.77792 3.63023,2.74635 1.3574,-0.59977 -0.4735,-7.22891 -1.16798,-11.58519 -0.75762,-4.60882 -2.74095,-14.28109 -3.283,-20.89753 -0.71429,-5.71429 -1.76776,-24.05425 -1.76776,-24.05425 0,0 -2.14658,13.70019 -2.14658,16.41497 -1.07329,6.50286 0.0631,34.724 -0.56821,34.97654 -0.88388,-0.0631 -2.58852,-7.1342 -3.283,-10.29093 -1.70463,-5.55584 -1.70463,-49.37121 -1.70463,-49.37121 0,0 0.50508,63.13453 -1.57837,63.19767 -1.32582,0 -4.29314,-5.68211 -4.41941,-9.34391"
       id="path3002"
       inkscape:connector-curvature="0"
       sodipodi:nodetypes="ccccccccccccccc" />
  </g>
</svg>
